<svg width="68" height="68" viewBox="0 0 68 68" fill="none" xmlns="http://www.w3.org/2000/svg">
<path d="M33.5581 1.59497V10.4294" stroke="black" stroke-width="2" stroke-linecap="round"/>
<path d="M9.70508 10.4294L15.952 16.6763" stroke="black" stroke-width="2" stroke-linecap="round"/>
<path d="M58.7769 10.4294L52.5299 16.6763" stroke="black" stroke-width="2" stroke-linecap="round"/>
<path d="M66.2456 33.3989L57.4111 33.3989" stroke="black" stroke-width="2" stroke-linecap="round"/>
<path d="M1.75415 33.3989L10.5886 33.3989" stroke="black" stroke-width="2" stroke-linecap="round"/>
<path fill-rule="evenodd" clip-rule="evenodd" d="M29.036 57.6934H38.5222C39.7066 57.6951 40.8534 57.2775 41.7595 56.5146C42.6655 55.7518 43.2723 54.6929 43.4724 53.5254L44.3814 47.7342C46.3671 46.1553 47.9731 44.1509 49.081 41.8687C50.1888 39.5866 50.7702 37.0848 50.7824 34.548C50.7946 32.0111 50.2372 29.5039 49.1513 27.2112C48.0654 24.9185 46.4787 22.8988 44.5082 21.301C40.5196 18.0575 35.288 16.8052 30.1553 17.8658C23.5292 19.2479 18.2667 24.6774 17.0577 31.3746C15.9261 37.642 18.2141 43.7579 23.0345 47.4775L24.0858 53.5254C24.2853 54.6931 24.8919 55.7524 25.7981 56.5154C26.7043 57.2784 27.8514 57.6957 29.036 57.6934ZM40.7175 46.8128L39.6631 52.8668L38.5191 53.8284H29.036L27.892 52.8638L26.8407 46.8159C26.6985 45.9965 26.2563 45.2513 25.5916 44.7195C23.7215 43.244 22.2918 41.2841 21.4577 39.0529C20.6237 36.8216 20.4172 34.4044 20.8608 32.0641C21.7915 26.8974 25.842 22.714 30.9376 21.6565C31.8744 21.4586 32.8144 21.3659 33.742 21.3659C36.7723 21.3553 39.7131 22.3931 42.0656 24.3033C45.1482 26.8108 46.9168 30.5305 46.9168 34.5006C46.9168 38.4706 45.1111 42.1934 41.9604 44.7226C41.2987 45.2544 40.8597 45.9965 40.7175 46.8128ZM25.0694 66.404C25.4318 66.7664 25.9233 66.97 26.4358 66.97H41.1227C41.6352 66.97 42.1267 66.7664 42.4891 66.404C42.8515 66.0416 43.0551 65.5501 43.0551 65.0375C43.0551 64.525 42.8515 64.0335 42.4891 63.6711C42.1267 63.3087 41.6352 63.1051 41.1227 63.1051H26.4358C25.9233 63.1051 25.4318 63.3087 25.0694 63.6711C24.7069 64.0335 24.5033 64.525 24.5033 65.0375C24.5033 65.5501 24.7069 66.0416 25.0694 66.404Z" fill="#7542E5"/>
<path d="M38.5222 57.6934L38.5236 56.6934H38.5222V57.6934ZM29.036 57.6934V56.6934H29.0341L29.036 57.6934ZM41.7595 56.5146L41.1154 55.7497H41.1154L41.7595 56.5146ZM43.4724 53.5254L44.4581 53.6944L44.4603 53.6805L43.4724 53.5254ZM44.3814 47.7342L43.7591 46.9514L43.454 47.194L43.3935 47.5791L44.3814 47.7342ZM49.081 41.8687L48.1814 41.4321V41.4321L49.081 41.8687ZM50.7824 34.548L49.7824 34.5432L50.7824 34.548ZM49.1513 27.2112L50.055 26.7831V26.7831L49.1513 27.2112ZM44.5082 21.301L43.8773 22.0768L43.8784 22.0777L44.5082 21.301ZM30.1553 17.8658L29.9529 16.8865L29.9511 16.8869L30.1553 17.8658ZM17.0577 31.3746L18.0418 31.5523L18.0418 31.5522L17.0577 31.3746ZM23.0345 47.4775L24.0197 47.3063L23.9532 46.9233L23.6454 46.6858L23.0345 47.4775ZM24.0858 53.5254L25.0715 53.357L25.071 53.3542L24.0858 53.5254ZM39.6631 52.8668L40.3065 53.6323L40.5857 53.3977L40.6483 53.0384L39.6631 52.8668ZM40.7175 46.8128L39.7323 46.6411L39.7323 46.6412L40.7175 46.8128ZM38.5191 53.8284V54.8284H38.8835L39.1625 54.5939L38.5191 53.8284ZM29.036 53.8284L28.3914 54.5929L28.6707 54.8284H29.036V53.8284ZM27.892 52.8638L26.9068 53.035L26.9691 53.3936L27.2473 53.6282L27.892 52.8638ZM26.8407 46.8159L25.8554 46.9869L25.8555 46.9871L26.8407 46.8159ZM25.5916 44.7195L26.2163 43.9386L26.211 43.9345L25.5916 44.7195ZM21.4577 39.0529L20.521 39.403L21.4577 39.0529ZM20.8608 32.0641L21.8434 32.2503L21.845 32.2414L20.8608 32.0641ZM30.9376 21.6565L31.1408 22.6357L31.1442 22.6349L30.9376 21.6565ZM33.742 21.3659V22.3659L33.7455 22.3659L33.742 21.3659ZM42.0656 24.3033L42.6966 23.5275L42.6959 23.5269L42.0656 24.3033ZM41.9604 44.7226L41.3344 43.9428L41.334 43.9432L41.9604 44.7226ZM25.0694 66.404L24.3622 67.1111L24.3623 67.1111L25.0694 66.404ZM42.4891 66.404L43.1962 67.1111H43.1962L42.4891 66.404ZM42.4891 63.6711L41.782 64.3782L41.782 64.3782L42.4891 63.6711ZM25.0694 63.6711L25.7765 64.3782H25.7765L25.0694 63.6711ZM38.5222 56.6934H29.036V58.6934H38.5222V56.6934ZM41.1154 55.7497C40.39 56.3604 39.4719 56.6948 38.5236 56.6934L38.5207 58.6934C39.9413 58.6954 41.3168 58.1946 42.4035 57.2796L41.1154 55.7497ZM42.4868 53.3565C42.3266 54.2911 41.8408 55.1389 41.1154 55.7497L42.4035 57.2796C43.4902 56.3646 44.2181 55.0946 44.458 53.6944L42.4868 53.3565ZM43.3935 47.5791L42.4845 53.3704L44.4603 53.6805L45.3693 47.8892L43.3935 47.5791ZM48.1814 41.4321C47.1389 43.5796 45.6276 45.4658 43.7591 46.9514L45.0038 48.5169C47.1066 46.8449 48.8074 44.7223 49.9806 42.3054L48.1814 41.4321ZM49.7824 34.5432C49.771 36.9303 49.2238 39.2845 48.1814 41.4321L49.9806 42.3054C51.1538 39.8886 51.7695 37.2393 51.7824 34.5528L49.7824 34.5432ZM48.2475 27.6392C49.2693 29.7967 49.7939 32.156 49.7824 34.5432L51.7824 34.5528C51.7953 31.8663 51.205 29.2111 50.055 26.7831L48.2475 27.6392ZM43.8784 22.0777C45.7326 23.5812 47.2257 25.4818 48.2475 27.6392L50.055 26.7831C48.905 24.3552 47.2248 22.2163 45.138 20.5242L43.8784 22.0777ZM30.3577 18.8451C35.2027 17.844 40.1269 19.0271 43.8773 22.0768L45.1391 20.5251C40.9122 17.0879 35.3732 15.7665 29.9529 16.8865L30.3577 18.8451ZM18.0418 31.5522C19.1789 25.253 24.1355 20.143 30.3595 18.8447L29.9511 16.8869C22.923 18.3528 17.3544 24.1018 16.0736 31.1969L18.0418 31.5522ZM23.6454 46.6858C19.1346 43.2051 16.9733 37.4698 18.0418 31.5523L16.0736 31.1969C14.8788 37.8142 17.2937 44.3108 22.4236 48.2692L23.6454 46.6858ZM25.071 53.3542L24.0197 47.3063L22.0493 47.6488L23.1005 53.6967L25.071 53.3542ZM26.4422 55.7504C25.7168 55.1397 25.2312 54.2917 25.0715 53.357L23.1001 53.6938C23.3394 55.0945 24.067 56.3651 25.154 57.2803L26.4422 55.7504ZM29.0341 56.6934C28.0858 56.6953 27.1675 56.3612 26.4422 55.7504L25.154 57.2803C26.241 58.1955 27.617 58.6962 29.038 58.6934L29.0341 56.6934ZM40.6483 53.0384L41.7026 46.9843L39.7323 46.6412L38.6779 52.6953L40.6483 53.0384ZM39.1625 54.5939L40.3065 53.6323L39.0197 52.1013L37.8756 53.0629L39.1625 54.5939ZM29.036 54.8284H38.5191V52.8284H29.036V54.8284ZM27.2473 53.6282L28.3914 54.5929L29.6807 53.064L28.5366 52.0993L27.2473 53.6282ZM25.8555 46.9871L26.9068 53.035L28.8772 52.6925L27.8259 46.6446L25.8555 46.9871ZM24.9669 45.5004C25.4443 45.8823 25.7557 46.4121 25.8554 46.9869L27.826 46.6448C27.6413 45.5809 27.0683 44.6203 26.2163 43.9386L24.9669 45.5004ZM20.521 39.403C21.4191 41.8055 22.9586 43.9158 24.9721 45.5046L26.211 43.9345C24.4845 42.5722 23.1645 40.7627 22.3944 38.7027L20.521 39.403ZM19.8783 31.8779C19.4007 34.3978 19.623 37.0005 20.521 39.403L22.3944 38.7027C21.6244 36.6427 21.4338 34.4111 21.8434 32.2503L19.8783 31.8779ZM30.7344 20.6774C25.2346 21.8187 20.8789 26.3232 19.8767 31.8868L21.845 32.2414C22.7042 27.4716 26.4494 23.6092 31.1408 22.6357L30.7344 20.6774ZM33.742 20.3659C32.7477 20.3659 31.7384 20.4653 30.7309 20.6781L31.1442 22.6349C32.0105 22.452 32.8811 22.3659 33.742 22.3659V20.3659ZM42.6959 23.5269C40.1643 21.4713 36.9996 20.3545 33.7385 20.3659L33.7455 22.3659C36.5451 22.3561 39.2619 23.3148 41.4352 25.0796L42.6959 23.5269ZM47.9168 34.5006C47.9168 30.2295 46.0127 26.2249 42.6966 23.5275L41.4345 25.079C44.2838 27.3967 45.9168 30.8315 45.9168 34.5006H47.9168ZM42.5864 45.5024C45.9686 42.7874 47.9168 38.7802 47.9168 34.5006H45.9168C45.9168 38.1611 44.2537 41.5993 41.3344 43.9428L42.5864 45.5024ZM41.7026 46.9844C41.8024 46.4115 42.1116 45.8841 42.5869 45.5021L41.334 43.9432C40.4859 44.6248 39.9169 45.5815 39.7323 46.6411L41.7026 46.9844ZM26.4358 65.97C26.1885 65.97 25.9513 65.8718 25.7765 65.6969L24.3623 67.1111C24.9122 67.6611 25.6581 67.97 26.4358 67.97V65.97ZM41.1227 65.97H26.4358V67.97H41.1227V65.97ZM41.782 65.6969C41.6072 65.8718 41.37 65.97 41.1227 65.97V67.97C41.9004 67.97 42.6463 67.6611 43.1962 67.1111L41.782 65.6969ZM42.0551 65.0375C42.0551 65.2848 41.9569 65.522 41.782 65.6969L43.1962 67.1111C43.7462 66.5612 44.0551 65.8153 44.0551 65.0375H42.0551ZM41.782 64.3782C41.9569 64.553 42.0551 64.7902 42.0551 65.0375H44.0551C44.0551 64.2598 43.7462 63.5139 43.1962 62.964L41.782 64.3782ZM41.1227 64.1051C41.37 64.1051 41.6072 64.2033 41.782 64.3782L43.1962 62.964C42.6463 62.414 41.9004 62.1051 41.1227 62.1051V64.1051ZM26.4358 64.1051H41.1227V62.1051H26.4358V64.1051ZM25.7765 64.3782C25.9513 64.2033 26.1885 64.1051 26.4358 64.1051V62.1051C25.6581 62.1051 24.9122 62.414 24.3622 62.964L25.7765 64.3782ZM25.5033 65.0375C25.5033 64.7902 25.6016 64.553 25.7765 64.3782L24.3623 62.964C23.8123 63.5139 23.5033 64.2598 23.5033 65.0375H25.5033ZM25.7765 65.6969C25.6016 65.522 25.5033 65.2848 25.5033 65.0375H23.5033C23.5033 65.8153 23.8123 66.5612 24.3622 67.1111L25.7765 65.6969Z" fill="black"/>
<path d="M48.3744 33.3736C48.3744 36.812 46.1658 44.4167 42.632 46.1836C42.1903 54.1346 38.6554 56.6241 33.3558 55.9015C29.3475 55.9015 26.2882 55.9015 24.9631 46.6253C23.2779 43.5138 19.6624 39.5577 17.8955 36.0239C17.8955 28.4613 25.7931 19.6802 33.3558 19.6802C40.9185 19.6802 48.3744 25.8109 48.3744 33.3736Z" fill="#7542E5"/>
</svg>
